<svg xmlns="http://www.w3.org/2000/svg" width="20" height="20" viewBox="0 0 20 20"><defs><style>.a{opacity:0.2;}.b{opacity:0;}</style></defs><g class="a"><rect class="b" width="20" height="20"/><path d="M8.333,16.667a8.334,8.334,0,1,1,8.334-8.334A8.343,8.343,0,0,1,8.333,16.667Zm0-15A6.666,6.666,0,1,0,15,8.333,6.674,6.674,0,0,0,8.333,1.667Z" transform="translate(1.667 1.667)"/><circle cx="0.833" cy="0.833" r="0.833" transform="translate(9.167 12.5)"/><path d="M.833,0A.833.833,0,0,0,0,.833V5A.833.833,0,1,0,1.667,5V.833A.833.833,0,0,0,.833,0Z" transform="translate(9.167 5.833)"/></g></svg>