<svg xmlns="http://www.w3.org/2000/svg" width="20" height="20" viewBox="0 0 20 20"><defs><style>.a{opacity:0.2;}.b{opacity:0;}</style></defs><g class="a"><rect class="b" width="20" height="20"/><path d="M7.632,16.667l-.14,0-.14,0a3.193,3.193,0,0,1-3.194-3.052v-.283h-2.8a1.367,1.367,0,0,1-.967-2.326L1.893,9.5V5.606A5.616,5.616,0,0,1,7.51,0a5.7,5.7,0,0,1,.733.048,5.719,5.719,0,0,1,4.85,5.734V9.5l1.5,1.508a1.367,1.367,0,0,1-.967,2.326h-2.8v.283A3.193,3.193,0,0,1,7.632,16.667ZM7.492,15h0c.033,0,.069,0,.111,0a1.567,1.567,0,0,0,1.556-1.387v-.283H5.826v.283A1.567,1.567,0,0,0,7.382,15C7.423,15,7.459,15,7.492,15ZM7.522,1.632A3.887,3.887,0,0,0,4.909,2.64a3.945,3.945,0,0,0-1.35,2.966V9.5a1.675,1.675,0,0,1-.491,1.183l-.983.984H12.9l-.992-.984A1.678,1.678,0,0,1,11.426,9.5V5.748a4.049,4.049,0,0,0-3.4-4.083A3.906,3.906,0,0,0,7.522,1.632Z" transform="translate(2.508 1.669)"/></g></svg>