<svg xmlns="http://www.w3.org/2000/svg" width="30" height="30" viewBox="0 0 30 30"><defs><style>.a{fill:rgba(0,0,0,0.4);}</style></defs><path class="a" d="M15,0A15,15,0,1,0,30,15,15.016,15.016,0,0,0,15,0Zm0,27.676A12.676,12.676,0,1,1,27.676,15,12.691,12.691,0,0,1,15,27.676Z"/><g transform="translate(7.739 9.482)"><path class="a" d="M146.222,162.125a1.162,1.162,0,0,0-1.641.079l-7.088,7.8-3.424-3.481a1.162,1.162,0,0,0-1.657,1.629l4.286,4.357a1.16,1.16,0,0,0,.828.347h.022a1.163,1.163,0,0,0,.838-.381l7.914-8.714A1.163,1.163,0,0,0,146.222,162.125Z" transform="translate(-132.079 -161.824)"/></g></svg>