<svg xmlns="http://www.w3.org/2000/svg" width="30" height="30" viewBox="0 0 30 30"><defs><style>.a{fill:rgba(0,0,0,0.4);}</style></defs><g transform="translate(0 -0.07)"><g transform="translate(0 0.07)"><g transform="translate(0 0)"><path class="a" d="M25.613,4.458a15,15,0,1,0,0,21.224A15.02,15.02,0,0,0,25.613,4.458ZM23.97,24.037a12.681,12.681,0,1,1,0-17.936A12.692,12.692,0,0,1,23.97,24.037Z" transform="translate(0 -0.07)"/></g></g><g transform="translate(9.799 9.725)"><path class="a" d="M177.449,173.371l-3.29-3.286,3.29-3.286a1.163,1.163,0,1,0-1.643-1.645l-3.292,3.289-3.292-3.289a1.163,1.163,0,1,0-1.643,1.645l3.29,3.286-3.29,3.286a1.163,1.163,0,0,0,1.643,1.645l3.292-3.289,3.292,3.289a1.163,1.163,0,1,0,1.643-1.645Z" transform="translate(-167.236 -164.813)"/></g></g></svg>