<svg xmlns="http://www.w3.org/2000/svg" width="13" height="16" viewBox="0 0 13 16"><defs><style>.a{opacity:0.18;}</style></defs><g class="a" transform="translate(-48)"><path d="M59.75,2H57V1.5A1.5,1.5,0,0,0,55.5,0h-2A1.5,1.5,0,0,0,52,1.5V2H49.25A1.251,1.251,0,0,0,48,3.25V5a.5.5,0,0,0,.5.5h.273l.432,9.071A1.5,1.5,0,0,0,50.7,16H58.3a1.5,1.5,0,0,0,1.5-1.429L60.227,5.5H60.5A.5.5,0,0,0,61,5V3.25A1.251,1.251,0,0,0,59.75,2ZM53,1.5a.5.5,0,0,1,.5-.5h2a.5.5,0,0,1,.5.5V2H53ZM49,3.25A.25.25,0,0,1,49.25,3h10.5a.25.25,0,0,1,.25.25V4.5H49Zm9.8,11.274a.5.5,0,0,1-.5.476H50.7a.5.5,0,0,1-.5-.476L49.774,5.5h9.451Z" transform="translate(0)"/><path d="M240.5,215.5a.5.5,0,0,0,.5-.5v-6.5a.5.5,0,0,0-1,0V215A.5.5,0,0,0,240.5,215.5Z" transform="translate(-186 -201.5)"/><path d="M320.5,215.5a.5.5,0,0,0,.5-.5v-6.5a.5.5,0,0,0-1,0V215A.5.5,0,0,0,320.5,215.5Z" transform="translate(-263.5 -201.5)"/><path d="M160.5,215.5a.5.5,0,0,0,.5-.5v-6.5a.5.5,0,0,0-1,0V215A.5.5,0,0,0,160.5,215.5Z" transform="translate(-108.5 -201.5)"/></g></svg>