<svg xmlns="http://www.w3.org/2000/svg" width="20" height="20" viewBox="0 0 20 20"><defs><style>.a{opacity:0.2;}.b{opacity:0;}</style></defs><g class="a"><rect class="b" width="20" height="20"/><path d="M8.333,16.667a8.334,8.334,0,1,1,8.334-8.334A8.343,8.343,0,0,1,8.333,16.667Zm0-15A6.666,6.666,0,1,0,15,8.333,6.674,6.674,0,0,0,8.333,1.667Z" transform="translate(1.667 1.667)"/><path d="M5.833,2.5H4.167V.833A.833.833,0,1,0,2.5.833V2.5H.833a.833.833,0,1,0,0,1.667H2.5V5.833a.833.833,0,0,0,1.667,0V4.167H5.833a.833.833,0,0,0,0-1.667Z" transform="translate(6.667 6.667)"/></g></svg>